<?xml version="1.0" standalone="no"?>
<!DOCTYPE svg PUBLIC "-//W3C//DTD SVG 20010904//EN"
 "http://www.w3.org/TR/2001/REC-SVG-20010904/DTD/svg10.dtd">
<svg version="1.0" xmlns="http://www.w3.org/2000/svg"
 width="135.000000pt" height="121.000000pt" viewBox="0 0 135.000000 121.000000"
 preserveAspectRatio="xMidYMid meet">

<g transform="translate(0.000000,121.000000) scale(0.100000,-0.100000)"
fill="#000000" stroke="none">
<path d="M260 594 l0 -426 23 14 c67 44 394 231 402 231 6 0 101 -52 213 -116
111 -64 206 -117 212 -117 7 0 10 139 10 420 0 242 -4 420 -9 420 -5 0 -102
-54 -215 -120 l-206 -121 -209 121 c-115 66 -212 120 -215 120 -3 0 -6 -192
-6 -426z m466 58 c78 -45 144 -82 148 -82 3 0 6 22 6 49 0 49 -1 50 -50 78
l-51 30 123 71 123 70 3 -265 c1 -146 1 -268 -1 -270 -2 -2 -117 62 -254 142
-138 79 -258 148 -267 151 -13 5 -16 -2 -16 -44 0 -51 0 -51 50 -78 27 -15 47
-30 45 -34 -3 -4 -46 -31 -97 -60 -51 -29 -103 -59 -115 -68 l-23 -14 0 271 0
270 118 -68 c64 -37 181 -105 258 -149z"/>
</g>
</svg>
